<?xml version="1.0" standalone="no"?>
<!DOCTYPE svg PUBLIC "-//W3C//DTD SVG 1.1//EN" "http://www.w3.org/Graphics/SVG/1.1/DTD/svg11.dtd" >
<svg xmlns="http://www.w3.org/2000/svg" xmlns:xlink="http://www.w3.org/1999/xlink" version="1.1">
<metadata></metadata>
<defs>
<font id="lineal_simples_stregular" horiz-adv-x="1280" >
<font-face units-per-em="2048" ascent="1638" descent="-410" />
<missing-glyph horiz-adv-x="795" />
<glyph horiz-adv-x="0" />
<glyph unicode="&#xd;" horiz-adv-x="508" />
<glyph unicode=" "  horiz-adv-x="795" />
<glyph unicode="&#x09;" horiz-adv-x="795" />
<glyph unicode="&#xa0;" horiz-adv-x="795" />
<glyph unicode="!" horiz-adv-x="672" />
<glyph unicode="&#x22;" horiz-adv-x="672" />
<glyph unicode="#" horiz-adv-x="1336" />
<glyph unicode="$" horiz-adv-x="1014" />
<glyph unicode="%" horiz-adv-x="1610" />
<glyph unicode="&#x26;" horiz-adv-x="1683" />
<glyph unicode="'" horiz-adv-x="346" />
<glyph unicode="(" horiz-adv-x="758" />
<glyph unicode=")" horiz-adv-x="758" />
<glyph unicode="*" horiz-adv-x="1024" />
<glyph unicode="+" horiz-adv-x="1014" />
<glyph unicode="," horiz-adv-x="557" />
<glyph unicode="-" horiz-adv-x="670" />
<glyph unicode="." horiz-adv-x="557" />
<glyph unicode="/" horiz-adv-x="569" />
<glyph unicode="0" horiz-adv-x="1014" />
<glyph unicode="1" horiz-adv-x="1014" />
<glyph unicode="2" horiz-adv-x="1014" />
<glyph unicode="3" horiz-adv-x="1014" />
<glyph unicode="4" horiz-adv-x="1014" />
<glyph unicode="5" horiz-adv-x="1014" />
<glyph unicode="6" horiz-adv-x="1014" />
<glyph unicode="7" horiz-adv-x="1014" />
<glyph unicode="8" horiz-adv-x="1014" />
<glyph unicode="9" horiz-adv-x="1014" />
<glyph unicode=":" horiz-adv-x="557" />
<glyph unicode=";" horiz-adv-x="557" />
<glyph unicode="&#x3c;" horiz-adv-x="1014" />
<glyph unicode="=" horiz-adv-x="1014" />
<glyph unicode="&#x3e;" horiz-adv-x="1014" />
<glyph unicode="?" horiz-adv-x="748" />
<glyph unicode="@" horiz-adv-x="2019" />
<glyph unicode="A" horiz-adv-x="1284" d="M100 60v1456q0 346 276 508q121 56 272 56q375 0 504 -356q32 -116 32 -232v-1428q0 -60 -40 -60h-8q-36 0 -36 48v944h-916v-932q0 -64 -44 -64q-40 0 -40 60zM184 1080h916v456q0 231 -188 388q-119 72 -244 72h-44q-306 0 -412 -300q-28 -82 -28 -156v-460z" />
<glyph unicode="B" d="M100 48v1984q0 48 40 48h500q190 0 376 -140q164 -152 164 -376v-56q0 -278 -264 -436l-72 -28v-4q336 -134 336 -476v-48q0 -343 -340 -476q-108 -40 -212 -40h-480q-48 0 -48 48zM180 88q1 -8 8 -8h400q354 0 480 276q32 88 32 184q0 312 -288 424q-61 24 -192 40 q-16 17 -16 32v12q0 40 104 40q198 48 300 164q92 124 92 288q0 373 -416 456q-44 4 -76 4h-428v-1912z" />
<glyph unicode="C" d="M100 548v984q0 298 232 468q127 80 284 80h48q353 0 484 -348q32 -108 32 -180v-12q-5 -36 -36 -36h-8q-40 0 -40 92q-32 174 -116 268q-126 136 -344 136q-313 0 -420 -288q-36 -88 -36 -228v-880q0 -368 248 -480q96 -44 212 -44q324 0 428 292q24 57 36 188 q17 16 32 16h8q36 -5 36 -36v-8q0 -261 -200 -432q-139 -100 -328 -100h-24q-373 0 -496 348q-32 101 -32 200z" />
<glyph unicode="D" d="M100 48v1984q0 48 48 48h484q262 0 436 -356q112 -277 112 -628v-104q-14 -763 -392 -952q-73 -40 -140 -40h-508q-36 0 -40 48zM180 80h448q208 0 368 316q104 261 104 648q-6 766 -372 932q-46 24 -136 24h-404q-8 -1 -8 -8v-1912z" />
<glyph unicode="E" d="M100 52v1968q0 60 40 60h996q44 0 44 -40q-7 -40 -40 -40h-956v-920h452q44 0 44 -40q-7 -40 -40 -40h-456v-920h948q44 0 44 -40q-7 -40 -40 -40h-992q-44 0 -44 52z" />
<glyph unicode="F" horiz-adv-x="1276" d="M100 48v1976q0 52 44 52h992q40 -5 40 -40q0 -40 -44 -40h-948v-920h456q40 -5 40 -40q0 -40 -44 -40h-452v-936q0 -60 -36 -60h-12q-36 0 -36 48z" />
<glyph unicode="G" d="M100 544v984q0 263 196 444q136 108 328 108h40q332 0 468 -316q48 -122 48 -216v-8q-5 -36 -36 -36h-8q-44 0 -44 112q-46 193 -156 288q-121 96 -300 96q-337 0 -436 -344q-20 -70 -20 -176v-876q0 -438 372 -516q73 -8 88 -8q346 0 444 356q16 66 16 132v432h-448 q-31 0 -44 24v24q0 32 36 32h496q40 -5 40 -40v-504q0 -181 -128 -360q-152 -176 -396 -176h-24q-367 0 -496 348q-36 115 -36 196z" />
<glyph unicode="H" d="M100 44v1980q0 44 36 44h12q32 0 32 -36v-952q1 -8 8 -8h912v952q0 44 36 44h12q32 0 32 -36v-1996q-5 -36 -36 -36h-8q-36 0 -36 44v948h-920v-956q-5 -36 -36 -36h-8q-36 0 -36 44z" />
<glyph unicode="I" horiz-adv-x="280" d="M100 44v1980q0 44 36 44h12q32 0 32 -36v-1996q-5 -36 -36 -36h-8q-36 0 -36 44z" />
<glyph unicode="J" d="M100 548v488q5 40 40 40h4q36 -5 36 -36v-432q0 -383 276 -496q93 -32 184 -32q297 0 412 256q48 109 48 224v1472q0 44 36 44h12q32 0 32 -36v-1512q0 -215 -168 -400q-148 -128 -360 -128h-28q-405 0 -512 428q-12 71 -12 120z" />
<glyph unicode="K" horiz-adv-x="1276" d="M100 44v1980q0 44 36 44h12q32 0 32 -36v-892q921 920 940 932h24q32 0 32 -32v-12q0 -28 -160 -176l-748 -752q907 -1031 908 -1048v-16q0 -29 -40 -36q-32 0 -132 132l-796 908q-6 0 -28 -28v-976q-5 -36 -36 -36h-8q-36 0 -36 44z" />
<glyph unicode="L" horiz-adv-x="1276" d="M100 72v1936q0 68 36 68h12q36 0 36 -48v-1948h956q36 -5 36 -36v-4q-5 -40 -40 -40h-992q-44 0 -44 72z" />
<glyph unicode="M" horiz-adv-x="1784" d="M100 72v1932q0 68 36 68h12q38 0 96 -152q284 -558 644 -1296h8q514 1046 720 1444l20 4h12q36 0 36 -48v-1976q0 -48 -36 -48h-12q-36 0 -36 68v1784h-4q-102 -215 -672 -1356l-28 -8h-8q-36 0 -100 156q-56 107 -600 1208h-4v-1792q0 -56 -36 -56h-12q-36 0 -36 68z " />
<glyph unicode="N" horiz-adv-x="1284" d="M100 68v1936q0 68 36 68h12q36 0 88 -132q7 -3 860 -1720h4v1780q0 68 36 68h12q36 0 36 -48v-1964q0 -56 -36 -56h-12q-34 0 -84 128q-7 3 -864 1728h-4v-1808q0 -48 -36 -48h-12q-36 0 -36 68z" />
<glyph unicode="O" horiz-adv-x="1284" d="M100 1040q0 314 116 672q145 368 424 368h4q384 0 504 -676q36 -220 36 -364q0 -490 -188 -832q-140 -208 -332 -208h-36q-321 0 -460 516q-68 287 -68 524zM184 1032q0 -468 184 -788q117 -164 284 -164q329 0 432 696q16 140 16 244v32q0 429 -176 768 q-124 180 -280 180q-363 0 -452 -804q-8 -96 -8 -164z" />
<glyph unicode="P" horiz-adv-x="1284" d="M100 68v1936q0 72 40 72h512q221 0 408 -172q124 -148 124 -372q0 -382 -360 -504q-94 -32 -188 -32h-444l-8 4v-952q0 -48 -36 -48h-8q-40 0 -40 68zM184 1076h404q358 0 480 268q32 85 32 164v56q0 290 -300 404q-96 28 -188 28h-428v-920z" />
<glyph unicode="Q" horiz-adv-x="1284" d="M100 1036q0 397 152 764q146 280 388 280h4q392 0 508 -708q32 -218 32 -332q0 -442 -172 -812q164 -153 164 -176v-16q0 -32 -36 -32q-33 0 -88 68l-92 88q-132 -160 -288 -160h-44q-358 0 -488 632q-40 241 -40 404zM184 1024q0 -409 152 -728q122 -216 316 -216 q142 0 248 144q-296 287 -296 304v12q0 36 32 36h12q28 0 156 -140l144 -140q152 312 152 748q0 420 -168 760q-125 196 -288 196q-351 0 -448 -752q-12 -116 -12 -196v-28z" />
<glyph unicode="R" horiz-adv-x="1284" d="M100 72v1932q0 76 60 76h432q412 0 556 -320q36 -116 36 -228q0 -373 -348 -500q-73 -24 -140 -32v-4q251 -116 396 -472q92 -291 92 -488q-8 -36 -40 -36h-4q-40 0 -40 88q0 132 -88 408q-66 179 -208 324q-167 144 -328 164q-81 12 -164 16q-16 17 -16 32v12 q0 36 48 36h304q232 0 388 200q64 116 64 228v48q0 310 -312 416q-81 24 -160 24h-444v-1944q0 -48 -36 -48h-12q-36 0 -36 68z" />
<glyph unicode="S" horiz-adv-x="1284" d="M100 1544q0 370 340 500q114 36 192 36h512q36 -5 36 -36v-4q-5 -40 -40 -40h-468q-350 0 -468 -300q-20 -78 -20 -156v-4q0 -242 416 -428l280 -148q304 -175 304 -428q0 -382 -360 -504q-94 -32 -188 -32h-484q-44 0 -44 36v12q0 32 36 32h444q358 0 480 268 q32 87 32 164v48q0 235 -516 460q-202 101 -344 216q-140 139 -140 308z" />
<glyph unicode="T" horiz-adv-x="1272" d="M100 2036q7 40 40 40h992q40 -5 40 -40v-4q-5 -36 -36 -36h-456v-1948q0 -48 -36 -48h-12q-36 0 -36 68v1904l4 20l-8 4h-448q-44 0 -44 40z" />
<glyph unicode="U" horiz-adv-x="1284" d="M100 604v1404q0 68 40 68h8q36 0 36 -48v-1480q0 -229 180 -384q113 -84 284 -84q344 0 440 360q12 55 12 100v1464q0 68 36 68h12q36 0 36 -48v-1460q0 -304 -224 -476q-131 -88 -292 -88h-60q-294 0 -444 280q-64 135 -64 324z" />
<glyph unicode="V" horiz-adv-x="1276" d="M100 2036q5 36 36 36h8q42 0 60 -132q5 -1 432 -1728q9 0 132 516l336 1328q15 12 28 12h12q32 0 32 -32v-8q0 -28 -500 -2012q-11 -16 -28 -16h-16q-39 0 -56 128q-476 1883 -476 1908z" />
<glyph unicode="W" horiz-adv-x="1780" d="M100 40v1996q5 36 36 36h8q36 0 36 -44v-1860l684 904l20 4h12q31 0 148 -176q6 -2 552 -732h4v1872q5 36 36 36h8q36 0 36 -44v-1992q-5 -40 -40 -40q-37 0 -144 164l-608 804q-698 -938 -728 -964q-13 0 -20 -4q-40 7 -40 40z" />
<glyph unicode="X" horiz-adv-x="1276" d="M100 36q0 28 244 500q0 9 248 496q-492 988 -492 996v8q5 36 36 36h8q36 0 100 -156q6 -2 392 -784q8 4 464 920l20 16h24q32 0 32 -40q0 -18 -428 -868q-60 -116 -60 -128q488 -970 488 -988v-4q-5 -40 -40 -40q-38 0 -84 120q-408 812 -416 820q-462 -936 -472 -936 l-8 -4h-24q-32 0 -32 36z" />
<glyph unicode="Y" horiz-adv-x="1276" d="M100 2016v8q0 40 32 40h24q20 0 184 -348q293 -581 300 -588q456 924 468 932q13 8 24 8h8q36 -5 36 -36q0 -28 -292 -596q-204 -412 -204 -420v-956q0 -60 -36 -60h-12q-36 0 -36 48v964q0 8 -496 1004z" />
<glyph unicode="Z" horiz-adv-x="1276" d="M100 48q0 7 968 1948v4h-924q-44 0 -44 40q7 40 40 40h996q40 -5 40 -36v-8q0 -24 -208 -432q-758 -1514 -760 -1524h924q40 -5 40 -36v-8q-5 -36 -36 -36h-1000q-36 0 -36 48z" />
<glyph unicode="[" horiz-adv-x="758" />
<glyph unicode="\" horiz-adv-x="569" />
<glyph unicode="]" horiz-adv-x="758" />
<glyph unicode="^" horiz-adv-x="852" d="M100 2198q0 28 136 152q161 172 184 172h8q39 0 136 -112q188 -176 188 -204v-12q0 -32 -32 -32h-12q-28 0 -204 188l-80 76q-259 -268 -276 -268h-8q-40 5 -40 40z" />
<glyph unicode="_" horiz-adv-x="1024" />
<glyph unicode="`" horiz-adv-x="560" d="M100 2483q3 40 40 40q33 0 172 -152q148 -137 148 -164v-12q0 -32 -32 -32h-12q-28 0 -204 188q-112 99 -112 132z" />
<glyph unicode="a" d="M100 532v20q0 367 348 496q107 36 228 36h424v192q0 333 -272 440q-106 36 -224 36h-460q-40 5 -40 40q5 40 40 40h508q201 0 380 -148q148 -152 148 -368v-1272q0 -36 -48 -44h-452q-386 0 -536 304q-44 110 -44 228zM180 544q0 -301 256 -416q115 -44 204 -44h460v916 h-452q-266 0 -408 -212q-60 -108 -60 -244z" />
<glyph unicode="b" d="M100 44v1996q5 40 40 40q40 -5 40 -40v-208h480q343 0 480 -340q40 -113 40 -196v-776q0 -343 -340 -480q-118 -40 -232 -40h-460q-48 8 -48 44zM180 84h456q237 0 396 196q68 111 68 280v704q0 259 -192 412q-100 76 -296 76h-432v-1668z" />
<glyph unicode="c" d="M100 548v744q0 208 156 396q153 144 364 144h40q368 0 496 -380q24 -100 24 -148v-12q-5 -40 -40 -40q-46 0 -52 136q-45 180 -152 268q-115 96 -300 96q-311 0 -420 -288q-36 -94 -36 -220v-648q0 -427 356 -504q43 -8 92 -8h28q315 0 420 312l32 168q20 12 32 12 q40 -5 40 -40q0 -233 -184 -420q-152 -116 -356 -116q-380 0 -508 356q-32 108 -32 192z" />
<glyph unicode="d" d="M100 532v756q0 227 176 416q145 128 352 128h472v208q5 40 40 40q40 -5 40 -40v-1996q0 -36 -48 -44h-448q-336 0 -504 240q-80 125 -80 292zM180 604q0 -296 132 -392q147 -128 332 -128h456v1668h-432q-324 0 -436 -248q-52 -122 -52 -264v-636z" />
<glyph unicode="e" horiz-adv-x="1284" d="M100 584v664q0 395 320 548q113 36 204 36h32q416 0 520 -456q8 -69 8 -112v-216q0 -43 -56 -48h-936l-8 4v-460q0 -233 184 -384q109 -76 260 -76h28q309 0 416 296q32 116 32 172q16 24 36 24h4q40 -9 40 -40q0 -161 -116 -344q-154 -192 -428 -192q-403 0 -520 404 q-20 90 -20 180zM184 1080l8 4h908v216q0 169 -128 324q-122 128 -332 128q-319 0 -424 -296q-32 -89 -32 -168v-208z" />
<glyph unicode="f" d="M100 40v1480q0 236 176 428q152 132 364 132q369 0 504 -356q36 -113 36 -192q-11 -32 -40 -32q-48 0 -48 108q-10 73 -80 204q-125 184 -372 184q-326 0 -432 -316q-28 -96 -28 -188v-164h452q44 -7 44 -44q0 -40 -76 -40h-420v-1204q-5 -40 -40 -40q-40 5 -40 40z" />
<glyph unicode="g" d="M100 290q0 29 40 36h4q44 0 44 -120q42 -187 144 -276q125 -96 292 -96h32q305 0 412 280q32 91 32 208v168h-4q-141 -240 -456 -240q-388 0 -512 364q-28 98 -28 180v488q0 216 148 396q149 156 396 156q392 0 512 -388q24 -83 24 -148v-1024q0 -229 -184 -412 q-151 -112 -360 -112q-420 0 -524 424q-12 61 -12 116zM180 842q0 -343 240 -464q89 -44 212 -44h24q309 0 416 296q28 90 28 188v448q0 221 -144 372q-117 112 -300 112h-32q-324 0 -424 -336q-20 -77 -20 -180v-392z" />
<glyph unicode="h" d="M100 44v1988q7 44 44 44q29 0 36 -40v-456h4q141 248 460 248q392 0 512 -388q24 -83 24 -148v-1252q-5 -40 -40 -40q-40 5 -40 40v1220q0 221 -144 372q-117 112 -300 112h-32q-310 0 -416 -308q-28 -84 -28 -220v-1176q-5 -40 -40 -40q-32 0 -40 44z" />
<glyph unicode="i" horiz-adv-x="400" d="M100 1708q0 86 108 100q92 -20 92 -92v-20q-16 -88 -100 -88h-8q-75 0 -92 100zM144 1700q13 -52 52 -52h4q60 8 60 52v8q0 47 -56 60q-60 -11 -60 -52v-16zM160 44v1236q8 44 40 44h4q35 0 40 -52v-1216q0 -56 -44 -56q-32 0 -40 44z" />
<glyph unicode="j" horiz-adv-x="836" d="M100 -190q0 44 96 44q165 0 304 160q96 144 96 324v968q7 44 44 44q29 0 36 -40v-1008q0 -227 -176 -408q-144 -124 -352 -124h-8q-40 5 -40 40zM536 1726v8q0 84 104 96q96 -17 96 -92v-16q0 -79 -104 -92q-96 17 -96 96zM576 1730q0 -50 64 -60q45 0 56 64 q-12 56 -64 56q-42 0 -56 -60z" />
<glyph unicode="k" horiz-adv-x="1284" d="M100 48v1984q8 44 40 44q44 0 44 -52v-940h4q102 0 252 96q164 127 164 372q18 24 40 24q27 0 40 -44q0 -300 -244 -448v-4h168q386 0 532 -308q44 -101 44 -284v-436q0 -52 -44 -52q-32 0 -40 44v504q0 355 -360 436q-37 12 -92 12h-464v-940q0 -52 -44 -52 q-32 0 -40 44z" />
<glyph unicode="l" horiz-adv-x="776" d="M100 544v1496q5 40 40 40q40 -5 40 -40v-1448q0 -343 240 -464q89 -44 212 -44q44 -7 44 -44q0 -31 -44 -40q-377 0 -504 364q-28 98 -28 180z" />
<glyph unicode="m" horiz-adv-x="1780" d="M100 40v1740q7 44 44 44q29 0 36 -40v-88q88 132 196 132h268q134 0 228 -188q16 -36 16 -48h4q51 155 152 208q51 28 92 28h268q192 0 260 -336q16 -94 16 -172v-1276q-5 -40 -40 -40q-40 5 -40 40v1208q0 423 -168 488q-18 8 -52 8h-220q-192 0 -228 -384v-1320 q-8 -44 -40 -44q-44 0 -44 52v1268q0 322 -164 416q-30 12 -64 12h-220q-145 0 -192 -224q-28 -72 -28 -372v-1112q-5 -40 -40 -40q-40 5 -40 40z" />
<glyph unicode="n" d="M100 40v1244q0 274 208 448q138 96 312 96h32q410 0 516 -424q12 -70 12 -108v-1260q0 -29 -40 -36q-40 7 -40 40v1216q0 332 -272 460q-98 32 -188 32q-352 0 -444 -352q-16 -64 -16 -140v-1216q-5 -36 -36 -36h-8q-36 5 -36 36z" />
<glyph unicode="o" horiz-adv-x="1288" d="M100 528v768q0 276 224 452q134 84 320 84q371 0 496 -344q48 -178 48 -324q0 -768 -32 -768q-111 -396 -520 -396q-377 0 -508 364q-28 112 -28 164zM180 564q0 -285 224 -428q98 -52 204 -52h64q261 0 380 256q52 64 52 484v420q-24 174 -52 248q-113 256 -388 256h-60 q-269 0 -384 -264q-40 -100 -40 -216v-704z" />
<glyph unicode="p" horiz-adv-x="1284" d="M100 -206v1988q10 48 48 48h464q314 0 488 -236q84 -116 84 -368v-648q0 -297 -208 -476q-135 -104 -324 -104h-468v-196q0 -52 -44 -52q-32 0 -40 44zM184 78h416q280 0 388 152q112 145 112 328v732q0 306 -268 416q-106 40 -192 40h-456v-1668z" />
<glyph unicode="q" horiz-adv-x="1284" d="M100 526v768q0 279 228 456q141 80 304 80h12q432 0 520 -456q0 -3 20 -112q-4 -877 -4 -1356v-116q-5 -40 -40 -40q-40 5 -40 40v456q-152 -248 -460 -248q-397 0 -516 384q-24 92 -24 144zM180 562q0 -279 220 -428q107 -52 208 -52h60q297 0 408 320q28 51 28 728v44 q0 265 -124 436q-127 136 -308 136h-68q-276 0 -388 -276q-36 -92 -36 -204v-704z" />
<glyph unicode="r" d="M100 40v1236q0 67 12 108q-12 26 -12 36v360q7 44 44 44q29 0 36 -40v-200q157 240 440 240h40q363 0 492 -364q28 -98 28 -176q-5 -40 -40 -40q-48 0 -48 124q-44 186 -144 272q-117 104 -312 104q-321 0 -428 -304q-28 -91 -28 -208v-1192q-5 -40 -40 -40q-40 5 -40 40 z" />
<glyph unicode="s" d="M100 544q11 32 40 32q48 0 48 -104q48 -205 156 -292q117 -96 284 -96h24q318 0 424 320q20 83 20 112v4q0 4 -984 744q-12 20 -12 32q0 195 140 376q153 160 380 160h40q363 0 492 -364q28 -98 28 -176q-5 -40 -40 -40q-48 0 -48 124q-44 186 -144 272 q-117 104 -312 104q-319 0 -424 -296q-28 -83 -28 -144v-4q956 -708 988 -744q8 -13 8 -24q0 -210 -164 -400q-150 -140 -380 -140q-374 0 -508 372q-28 115 -28 172z" />
<glyph unicode="t" horiz-adv-x="1024" d="M100 1288q0 44 52 44h196v704q7 44 44 44q35 0 40 -52v-696h184q56 0 56 -44q0 -32 -44 -40h-196v-712q0 -228 180 -376q111 -76 264 -76h4q44 -8 44 -40v-4q-9 -40 -40 -40q-386 0 -508 372q-28 91 -28 204v672h-204q-44 8 -44 40z" />
<glyph unicode="u" d="M100 532v1260q0 29 40 36q40 -7 40 -40v-1216q0 -332 272 -460q98 -32 188 -32q352 0 444 352q16 65 16 140v1216q5 36 36 36h8q36 -5 36 -36v-1244q0 -274 -208 -448q-138 -96 -312 -96h-32q-410 0 -516 424q-12 70 -12 108z" />
<glyph unicode="v" d="M100 1792q13 36 44 36q39 0 68 -148l428 -1488h4q256 915 464 1620q20 12 32 12q40 -5 40 -40q-492 -1740 -508 -1772q-20 -12 -32 -12q-43 0 -60 108q-480 1663 -480 1684z" />
<glyph unicode="w" horiz-adv-x="1780" d="M100 504v1284q5 40 40 40q40 -5 40 -40v-1220q0 -372 140 -468q30 -20 92 -20h212q158 0 212 284q12 79 12 168v756q5 40 40 40q44 -7 44 -44v-776q0 -322 164 -416q30 -12 64 -12h208q139 0 192 168q40 134 40 380v1160q5 40 40 40q40 -5 40 -40v-1252q0 -382 -180 -508 q-54 -28 -104 -28h-260q-134 0 -228 188q-16 36 -16 48h-4q-87 -236 -252 -236h-260q-194 0 -264 348q-12 99 -12 156z" />
<glyph unicode="x" horiz-adv-x="1276" d="M100 40q12 36 372 660q120 207 120 220q-480 825 -492 868q0 32 44 40q31 0 92 -128q154 -262 400 -700h4q34 48 464 808q21 16 36 16q36 -7 36 -36v-12q0 -11 -488 -864q488 -849 488 -864v-8q-5 -36 -36 -36h-4q-35 0 -84 108q-408 709 -408 716h-8 q-203 -367 -468 -820l-28 -8q-40 5 -40 40z" />
<glyph unicode="y" horiz-adv-x="1284" d="M100 294q11 32 40 32q48 0 48 -108q91 -384 440 -384h24q318 0 424 320q24 96 24 168v176h-4q-140 -248 -456 -248q-381 0 -508 364q-32 96 -32 188v988q5 40 40 40q40 -5 40 -40v-948q0 -374 300 -488q79 -20 148 -20h24q328 0 428 332q20 83 20 152v972q5 40 40 40 q44 0 44 -76v-144q0 -435 -4 -1348q0 -113 -104 -300q-155 -212 -436 -212q-419 0 -528 440q-12 65 -12 104z" />
<glyph unicode="z" d="M100 44q88 165 708 1248q145 249 260 456h-920q-44 8 -44 40v4q0 32 44 40h984q48 -7 48 -44q-10 -36 -440 -780l-528 -924v-4h924q40 -5 40 -40q-5 -40 -40 -40h-992q-44 7 -44 44z" />
<glyph unicode="{" horiz-adv-x="1014" />
<glyph unicode="|" horiz-adv-x="1014" />
<glyph unicode="}" horiz-adv-x="1014" />
<glyph unicode="~" horiz-adv-x="860" d="M100 1261v20q0 91 96 128q42 12 84 12h16q133 0 172 -92q8 -28 8 -48v-48q22 -100 100 -100q81 0 112 128q15 12 28 12h8q36 0 36 -44q0 -82 -92 -156q-48 -20 -88 -20h-8q-153 0 -180 184q4 35 4 44q-14 60 -112 60q-104 0 -104 -68q4 -28 4 -32q-4 -40 -36 -40h-8 q-40 0 -40 60z" />
<glyph unicode="&#xa1;" horiz-adv-x="672" />
<glyph unicode="&#xa2;" horiz-adv-x="1139" />
<glyph unicode="&#xa3;" horiz-adv-x="1014" />
<glyph unicode="&#xa4;" horiz-adv-x="1014" />
<glyph unicode="&#xa5;" horiz-adv-x="1262" />
<glyph unicode="&#xa6;" horiz-adv-x="1014" />
<glyph unicode="&#xa7;" horiz-adv-x="1014" />
<glyph unicode="&#xa8;" horiz-adv-x="764" d="M100 2402q17 112 104 112h8q83 0 112 -80l4 -24v-20q-23 -104 -104 -104h-20q-89 0 -104 116zM140 2398q0 -60 80 -72q51 0 68 76v4q0 53 -76 68q-58 0 -72 -76zM436 2398q17 112 104 112h8q83 0 112 -80l4 -24v-20q-23 -104 -104 -104h-20q-89 0 -104 116zM476 2394 q0 -60 80 -72q51 0 68 76v4q0 53 -76 68q-58 0 -72 -76z" />
<glyph unicode="&#xa9;" horiz-adv-x="1674" />
<glyph unicode="&#xaa;" horiz-adv-x="648" />
<glyph unicode="&#xab;" horiz-adv-x="944" />
<glyph unicode="&#xac;" horiz-adv-x="1014" />
<glyph unicode="&#xad;" horiz-adv-x="670" />
<glyph unicode="&#xae;" horiz-adv-x="1300" />
<glyph unicode="&#xaf;" horiz-adv-x="1540" />
<glyph unicode="&#xb0;" horiz-adv-x="1540" />
<glyph unicode="&#xb1;" horiz-adv-x="1540" />
<glyph unicode="&#xb2;" horiz-adv-x="1540" />
<glyph unicode="&#xb3;" horiz-adv-x="1014" />
<glyph unicode="&#xb4;" horiz-adv-x="560" d="M100 2483q3 40 40 40q33 0 172 -152q148 -137 148 -164v-12q0 -32 -32 -32h-12q-28 0 -204 188q-112 99 -112 132z" />
<glyph unicode="&#xb5;" horiz-adv-x="1180" />
<glyph unicode="&#xb6;" horiz-adv-x="1024" />
<glyph unicode="&#xb7;" horiz-adv-x="508" />
<glyph unicode="&#xb8;" horiz-adv-x="1024" />
<glyph unicode="&#xb9;" horiz-adv-x="1014" />
<glyph unicode="&#xba;" horiz-adv-x="718" />
<glyph unicode="&#xbb;" horiz-adv-x="944" />
<glyph unicode="&#xbc;" horiz-adv-x="1708" />
<glyph unicode="&#xbd;" horiz-adv-x="1964" />
<glyph unicode="&#xbe;" horiz-adv-x="1708" />
<glyph unicode="&#xbf;" horiz-adv-x="748" />
<glyph unicode="&#xc0;" horiz-adv-x="1284" d="M100 60v1456q0 346 276 508q121 56 272 56q375 0 504 -356q32 -116 32 -232v-1428q0 -60 -40 -60h-8q-36 0 -36 48v944h-916v-932q0 -64 -44 -64q-40 0 -40 60zM184 1080h916v456q0 231 -188 388q-119 72 -244 72h-44q-306 0 -412 -300q-28 -82 -28 -156v-460zM462 2483 q3 40 40 40q33 0 172 -152q148 -137 148 -164v-12q0 -32 -32 -32h-12q-28 0 -204 188q-112 99 -112 132z" />
<glyph unicode="&#xc1;" horiz-adv-x="1284" d="M100 60v1456q0 346 276 508q121 56 272 56q375 0 504 -356q32 -116 32 -232v-1428q0 -60 -40 -60h-8q-36 0 -36 48v944h-916v-932q0 -64 -44 -64q-40 0 -40 60zM184 1080h916v456q0 231 -188 388q-119 72 -244 72h-44q-306 0 -412 -300q-28 -82 -28 -156v-460zM462 2195 v12q0 27 148 164q139 152 172 152q37 0 40 -40q0 -33 -112 -132q-176 -188 -204 -188h-12q-32 0 -32 32z" />
<glyph unicode="&#xc2;" horiz-adv-x="1284" d="M100 60v1456q0 346 276 508q121 56 272 56q375 0 504 -356q32 -116 32 -232v-1428q0 -60 -40 -60h-8q-36 0 -36 48v944h-916v-932q0 -64 -44 -64q-40 0 -40 60zM184 1080h916v456q0 231 -188 388q-119 72 -244 72h-44q-306 0 -412 -300q-28 -82 -28 -156v-460zM316 2198 q0 28 136 152q161 172 184 172h8q39 0 136 -112q188 -176 188 -204v-12q0 -32 -32 -32h-12q-28 0 -204 188l-80 76q-259 -268 -276 -268h-8q-40 5 -40 40z" />
<glyph unicode="&#xc3;" horiz-adv-x="1284" d="M100 60v1456q0 346 276 508q121 56 272 56q375 0 504 -356q32 -116 32 -232v-1428q0 -60 -40 -60h-8q-36 0 -36 48v944h-916v-932q0 -64 -44 -64q-40 0 -40 60zM184 1080h916v456q0 231 -188 388q-119 72 -244 72h-44q-306 0 -412 -300q-28 -82 -28 -156v-460zM312 2358 v20q0 91 96 128q42 12 84 12h16q133 0 172 -92q8 -28 8 -48v-48q22 -100 100 -100q81 0 112 128q15 12 28 12h8q36 0 36 -44q0 -82 -92 -156q-48 -20 -88 -20h-8q-153 0 -180 184q4 35 4 44q-14 60 -112 60q-104 0 -104 -68q4 -28 4 -32q-4 -40 -36 -40h-8q-40 0 -40 60z " />
<glyph unicode="&#xc4;" horiz-adv-x="1284" d="M100 60v1456q0 346 276 508q121 56 272 56q375 0 504 -356q32 -116 32 -232v-1428q0 -60 -40 -60h-8q-36 0 -36 48v944h-916v-932q0 -64 -44 -64q-40 0 -40 60zM184 1080h916v456q0 231 -188 388q-119 72 -244 72h-44q-306 0 -412 -300q-28 -82 -28 -156v-460zM360 2402 q17 112 104 112h8q83 0 112 -80l4 -24v-20q-23 -104 -104 -104h-20q-89 0 -104 116zM400 2398q0 -60 80 -72q51 0 68 76v4q0 53 -76 68q-58 0 -72 -76zM696 2398q17 112 104 112h8q83 0 112 -80l4 -24v-20q-23 -104 -104 -104h-20q-89 0 -104 116zM736 2394q0 -60 80 -72 q51 0 68 76v4q0 53 -76 68q-58 0 -72 -76z" />
<glyph unicode="&#xc5;" horiz-adv-x="1284" d="M100 60v1456q0 346 276 508q121 56 272 56q375 0 504 -356q32 -116 32 -232v-1428q0 -60 -40 -60h-8q-36 0 -36 48v944h-916v-932q0 -64 -44 -64q-40 0 -40 60zM184 1080h916v456q0 231 -188 388q-119 72 -244 72h-44q-306 0 -412 -300q-28 -82 -28 -156v-460zM528 2398 q17 112 104 112h8q83 0 112 -80l4 -24v-20q-23 -104 -104 -104h-20q-89 0 -104 116zM568 2394q0 -60 80 -72q51 0 68 76v4q0 53 -76 68q-58 0 -72 -76z" />
<glyph unicode="&#xc6;" horiz-adv-x="2280" d="M100 60v1456q0 346 276 508q121 56 272 56q310 0 448 -240h4v180q0 60 40 60h996q44 0 44 -40q-7 -40 -40 -40h-956v-920h452q44 0 44 -40q-7 -40 -40 -40h-456v-920h948q44 0 44 -40q-7 -40 -40 -40h-996q-40 5 -40 40v956h-916v-932q0 -64 -44 -64q-40 0 -40 60z M184 1080h916v456q0 231 -188 388q-119 72 -244 72h-44q-306 0 -412 -300q-28 -82 -28 -156v-460z" />
<glyph unicode="&#xc7;" horiz-adv-x="1399" />
<glyph unicode="&#xc8;" d="M100 52v1968q0 60 40 60h996q44 0 44 -40q-7 -40 -40 -40h-956v-920h452q44 0 44 -40q-7 -40 -40 -40h-456v-920h948q44 0 44 -40q-7 -40 -40 -40h-992q-44 0 -44 52zM501 2483q3 40 40 40q33 0 172 -152q148 -137 148 -164v-12q0 -32 -32 -32h-12q-28 0 -204 188 q-112 99 -112 132z" />
<glyph unicode="&#xc9;" d="M100 52v1968q0 60 40 60h996q44 0 44 -40q-7 -40 -40 -40h-956v-920h452q44 0 44 -40q-7 -40 -40 -40h-456v-920h948q44 0 44 -40q-7 -40 -40 -40h-992q-44 0 -44 52zM501 2195v12q0 27 148 164q139 152 172 152q37 0 40 -40q0 -33 -112 -132q-176 -188 -204 -188h-12 q-32 0 -32 32z" />
<glyph unicode="&#xca;" d="M100 52v1968q0 60 40 60h996q44 0 44 -40q-7 -40 -40 -40h-956v-920h452q44 0 44 -40q-7 -40 -40 -40h-456v-920h948q44 0 44 -40q-7 -40 -40 -40h-992q-44 0 -44 52zM355 2198q0 28 136 152q161 172 184 172h8q39 0 136 -112q188 -176 188 -204v-12q0 -32 -32 -32h-12 q-28 0 -204 188l-80 76q-259 -268 -276 -268h-8q-40 5 -40 40z" />
<glyph unicode="&#xcb;" d="M100 52v1968q0 60 40 60h996q44 0 44 -40q-7 -40 -40 -40h-956v-920h452q44 0 44 -40q-7 -40 -40 -40h-456v-920h948q44 0 44 -40q-7 -40 -40 -40h-992q-44 0 -44 52zM399 2402q17 112 104 112h8q83 0 112 -80l4 -24v-20q-23 -104 -104 -104h-20q-89 0 -104 116z M439 2398q0 -60 80 -72q51 0 68 76v4q0 53 -76 68q-58 0 -72 -76zM735 2398q17 112 104 112h8q83 0 112 -80l4 -24v-20q-23 -104 -104 -104h-20q-89 0 -104 116zM775 2394q0 -60 80 -72q51 0 68 76v4q0 53 -76 68q-58 0 -72 -76z" />
<glyph unicode="&#xcc;" horiz-adv-x="565" d="M100 2483q3 40 40 40q33 0 172 -152q148 -137 148 -164v-12q0 -32 -32 -32h-12q-28 0 -204 188q-112 99 -112 132zM385 44v1980q0 44 36 44h12q32 0 32 -36v-1996q-5 -36 -36 -36h-8q-36 0 -36 44z" />
<glyph unicode="&#xcd;" horiz-adv-x="585" d="M100 44v1980q0 44 36 44h12q32 0 32 -36v-1996q-5 -36 -36 -36h-8q-36 0 -36 44zM125 2195v12q0 27 148 164q139 152 172 152q37 0 40 -40q0 -33 -112 -132q-176 -188 -204 -188h-12q-32 0 -32 32z" />
<glyph unicode="&#xce;" horiz-adv-x="852" d="M100 2198q0 28 136 152q161 172 184 172h8q39 0 136 -112q188 -176 188 -204v-12q0 -32 -32 -32h-12q-28 0 -204 188l-80 76q-259 -268 -276 -268h-8q-40 5 -40 40zM391 44v1980q0 44 36 44h12q32 0 32 -36v-1996q-5 -36 -36 -36h-8q-36 0 -36 44z" />
<glyph unicode="&#xcf;" horiz-adv-x="764" d="M100 2402q17 112 104 112h8q83 0 112 -80l4 -24v-20q-23 -104 -104 -104h-20q-89 0 -104 116zM140 2398q0 -60 80 -72q51 0 68 76v4q0 53 -76 68q-58 0 -72 -76zM337 44v1980q0 44 36 44h12q32 0 32 -36v-1996q-5 -36 -36 -36h-8q-36 0 -36 44zM436 2398q17 112 104 112 h8q83 0 112 -80l4 -24v-20q-23 -104 -104 -104h-20q-89 0 -104 116zM476 2394q0 -60 80 -72q51 0 68 76v4q0 53 -76 68q-58 0 -72 -76z" />
<glyph unicode="&#xd0;" horiz-adv-x="1518" />
<glyph unicode="&#xd1;" horiz-adv-x="1284" d="M100 68v1936q0 68 36 68h12q36 0 88 -132q7 -3 860 -1720h4v1780q0 68 36 68h12q36 0 36 -48v-1964q0 -56 -36 -56h-12q-34 0 -84 128q-7 3 -864 1728h-4v-1808q0 -48 -36 -48h-12q-36 0 -36 68zM353 2358v20q0 91 96 128q42 12 84 12h16q133 0 172 -92q8 -28 8 -48v-48 q22 -100 100 -100q81 0 112 128q15 12 28 12h8q36 0 36 -44q0 -82 -92 -156q-48 -20 -88 -20h-8q-153 0 -180 184q4 35 4 44q-14 60 -112 60q-104 0 -104 -68q4 -28 4 -32q-4 -40 -36 -40h-8q-40 0 -40 60z" />
<glyph unicode="&#xd2;" horiz-adv-x="1284" d="M100 1040q0 314 116 672q145 368 424 368h4q384 0 504 -676q36 -220 36 -364q0 -490 -188 -832q-140 -208 -332 -208h-36q-321 0 -460 516q-68 287 -68 524zM184 1032q0 -468 184 -788q117 -164 284 -164q329 0 432 696q16 140 16 244v32q0 429 -176 768 q-124 180 -280 180q-363 0 -452 -804q-8 -96 -8 -164zM510 2483q3 40 40 40q33 0 172 -152q148 -137 148 -164v-12q0 -32 -32 -32h-12q-28 0 -204 188q-112 99 -112 132z" />
<glyph unicode="&#xd3;" horiz-adv-x="1284" d="M100 1040q0 314 116 672q145 368 424 368h4q384 0 504 -676q36 -220 36 -364q0 -490 -188 -832q-140 -208 -332 -208h-36q-321 0 -460 516q-68 287 -68 524zM184 1032q0 -468 184 -788q117 -164 284 -164q329 0 432 696q16 140 16 244v32q0 429 -176 768 q-124 180 -280 180q-363 0 -452 -804q-8 -96 -8 -164zM510 2195v12q0 27 148 164q139 152 172 152q37 0 40 -40q0 -33 -112 -132q-176 -188 -204 -188h-12q-32 0 -32 32z" />
<glyph unicode="&#xd4;" horiz-adv-x="1284" d="M100 1040q0 314 116 672q145 368 424 368h4q384 0 504 -676q36 -220 36 -364q0 -490 -188 -832q-140 -208 -332 -208h-36q-321 0 -460 516q-68 287 -68 524zM184 1032q0 -468 184 -788q117 -164 284 -164q329 0 432 696q16 140 16 244v32q0 429 -176 768 q-124 180 -280 180q-363 0 -452 -804q-8 -96 -8 -164zM364 2198q0 28 136 152q161 172 184 172h8q39 0 136 -112q188 -176 188 -204v-12q0 -32 -32 -32h-12q-28 0 -204 188l-80 76q-259 -268 -276 -268h-8q-40 5 -40 40z" />
<glyph unicode="&#xd5;" horiz-adv-x="1284" d="M100 1040q0 314 116 672q145 368 424 368h4q384 0 504 -676q36 -220 36 -364q0 -490 -188 -832q-140 -208 -332 -208h-36q-321 0 -460 516q-68 287 -68 524zM184 1032q0 -468 184 -788q117 -164 284 -164q329 0 432 696q16 140 16 244v32q0 429 -176 768 q-124 180 -280 180q-363 0 -452 -804q-8 -96 -8 -164zM360 2358v20q0 91 96 128q42 12 84 12h16q133 0 172 -92q8 -28 8 -48v-48q22 -100 100 -100q81 0 112 128q15 12 28 12h8q36 0 36 -44q0 -82 -92 -156q-48 -20 -88 -20h-8q-153 0 -180 184q4 35 4 44q-14 60 -112 60 q-104 0 -104 -68q4 -28 4 -32q-4 -40 -36 -40h-8q-40 0 -40 60z" />
<glyph unicode="&#xd6;" horiz-adv-x="1284" d="M100 1040q0 314 116 672q145 368 424 368h4q384 0 504 -676q36 -220 36 -364q0 -490 -188 -832q-140 -208 -332 -208h-36q-321 0 -460 516q-68 287 -68 524zM184 1032q0 -468 184 -788q117 -164 284 -164q329 0 432 696q16 140 16 244v32q0 429 -176 768 q-124 180 -280 180q-363 0 -452 -804q-8 -96 -8 -164zM408 2402q17 112 104 112h8q83 0 112 -80l4 -24v-20q-23 -104 -104 -104h-20q-89 0 -104 116zM448 2398q0 -60 80 -72q51 0 68 76v4q0 53 -76 68q-58 0 -72 -76zM744 2398q17 112 104 112h8q83 0 112 -80l4 -24v-20 q-23 -104 -104 -104h-20q-89 0 -104 116zM784 2394q0 -60 80 -72q51 0 68 76v4q0 53 -76 68q-58 0 -72 -76z" />
<glyph unicode="&#xd7;" horiz-adv-x="1014" />
<glyph unicode="&#xd8;" horiz-adv-x="1614" />
<glyph unicode="&#xd9;" horiz-adv-x="1284" d="M100 604v1404q0 68 40 68h8q36 0 36 -48v-1480q0 -229 180 -384q113 -84 284 -84q344 0 440 360q12 55 12 100v1464q0 68 36 68h12q36 0 36 -48v-1460q0 -304 -224 -476q-131 -88 -292 -88h-60q-294 0 -444 280q-64 135 -64 324zM413 2483q3 40 40 40q33 0 172 -152 q148 -137 148 -164v-12q0 -32 -32 -32h-12q-28 0 -204 188q-112 99 -112 132z" />
<glyph unicode="&#xda;" horiz-adv-x="1284" d="M100 604v1404q0 68 40 68h8q36 0 36 -48v-1480q0 -229 180 -384q113 -84 284 -84q344 0 440 360q12 55 12 100v1464q0 68 36 68h12q36 0 36 -48v-1460q0 -304 -224 -476q-131 -88 -292 -88h-60q-294 0 -444 280q-64 135 -64 324zM413 2195v12q0 27 148 164 q139 152 172 152q37 0 40 -40q0 -33 -112 -132q-176 -188 -204 -188h-12q-32 0 -32 32z" />
<glyph unicode="&#xdb;" horiz-adv-x="1284" d="M100 604v1404q0 68 40 68h8q36 0 36 -48v-1480q0 -229 180 -384q113 -84 284 -84q344 0 440 360q12 55 12 100v1464q0 68 36 68h12q36 0 36 -48v-1460q0 -304 -224 -476q-131 -88 -292 -88h-60q-294 0 -444 280q-64 135 -64 324zM267 2198q0 28 136 152q161 172 184 172 h8q39 0 136 -112q188 -176 188 -204v-12q0 -32 -32 -32h-12q-28 0 -204 188l-80 76q-259 -268 -276 -268h-8q-40 5 -40 40z" />
<glyph unicode="&#xdc;" horiz-adv-x="1284" d="M100 604v1404q0 68 40 68h8q36 0 36 -48v-1480q0 -229 180 -384q113 -84 284 -84q344 0 440 360q12 55 12 100v1464q0 68 36 68h12q36 0 36 -48v-1460q0 -304 -224 -476q-131 -88 -292 -88h-60q-294 0 -444 280q-64 135 -64 324zM311 2402q17 112 104 112h8q83 0 112 -80 l4 -24v-20q-23 -104 -104 -104h-20q-89 0 -104 116zM351 2398q0 -60 80 -72q51 0 68 76v4q0 53 -76 68q-58 0 -72 -76zM647 2398q17 112 104 112h8q83 0 112 -80l4 -24v-20q-23 -104 -104 -104h-20q-89 0 -104 116zM687 2394q0 -60 80 -72q51 0 68 76v4q0 53 -76 68 q-58 0 -72 -76z" />
<glyph unicode="&#xdd;" horiz-adv-x="1233" />
<glyph unicode="&#xde;" horiz-adv-x="1120" />
<glyph unicode="&#xdf;" horiz-adv-x="1251" />
<glyph unicode="&#xe0;" d="M100 532v20q0 367 348 496q107 36 228 36h424v192q0 333 -272 440q-106 36 -224 36h-460q-40 5 -40 40q5 40 40 40h508q201 0 380 -148q148 -152 148 -368v-1272q0 -36 -48 -44h-452q-386 0 -536 304q-44 110 -44 228zM180 544q0 -301 256 -416q115 -44 204 -44h460v916 h-452q-266 0 -408 -212q-60 -108 -60 -244zM410 2483q3 40 40 40q33 0 172 -152q148 -137 148 -164v-12q0 -32 -32 -32h-12q-28 0 -204 188q-112 99 -112 132z" />
<glyph unicode="&#xe1;" d="M100 532v20q0 367 348 496q107 36 228 36h424v192q0 333 -272 440q-106 36 -224 36h-460q-40 5 -40 40q5 40 40 40h508q201 0 380 -148q148 -152 148 -368v-1272q0 -36 -48 -44h-452q-386 0 -536 304q-44 110 -44 228zM180 544q0 -301 256 -416q115 -44 204 -44h460v916 h-452q-266 0 -408 -212q-60 -108 -60 -244zM410 2195v12q0 27 148 164q139 152 172 152q37 0 40 -40q0 -33 -112 -132q-176 -188 -204 -188h-12q-32 0 -32 32z" />
<glyph unicode="&#xe2;" d="M100 532v20q0 367 348 496q107 36 228 36h424v192q0 333 -272 440q-106 36 -224 36h-460q-40 5 -40 40q5 40 40 40h508q201 0 380 -148q148 -152 148 -368v-1272q0 -36 -48 -44h-452q-386 0 -536 304q-44 110 -44 228zM180 544q0 -301 256 -416q115 -44 204 -44h460v916 h-452q-266 0 -408 -212q-60 -108 -60 -244zM264 2198q0 28 136 152q161 172 184 172h8q39 0 136 -112q188 -176 188 -204v-12q0 -32 -32 -32h-12q-28 0 -204 188l-80 76q-259 -268 -276 -268h-8q-40 5 -40 40z" />
<glyph unicode="&#xe3;" d="M100 532v20q0 367 348 496q107 36 228 36h424v192q0 333 -272 440q-106 36 -224 36h-460q-40 5 -40 40q5 40 40 40h508q201 0 380 -148q148 -152 148 -368v-1272q0 -36 -48 -44h-452q-386 0 -536 304q-44 110 -44 228zM180 544q0 -301 256 -416q115 -44 204 -44h460v916 h-452q-266 0 -408 -212q-60 -108 -60 -244zM260 2358v20q0 91 96 128q42 12 84 12h16q133 0 172 -92q8 -28 8 -48v-48q22 -100 100 -100q81 0 112 128q15 12 28 12h8q36 0 36 -44q0 -82 -92 -156q-48 -20 -88 -20h-8q-153 0 -180 184q4 35 4 44q-14 60 -112 60 q-104 0 -104 -68q4 -28 4 -32q-4 -40 -36 -40h-8q-40 0 -40 60z" />
<glyph unicode="&#xe4;" d="M100 532v20q0 367 348 496q107 36 228 36h424v192q0 333 -272 440q-106 36 -224 36h-460q-40 5 -40 40q5 40 40 40h508q201 0 380 -148q148 -152 148 -368v-1272q0 -36 -48 -44h-452q-386 0 -536 304q-44 110 -44 228zM180 544q0 -301 256 -416q115 -44 204 -44h460v916 h-452q-266 0 -408 -212q-60 -108 -60 -244zM308 2402q17 112 104 112h8q83 0 112 -80l4 -24v-20q-23 -104 -104 -104h-20q-89 0 -104 116zM348 2398q0 -60 80 -72q51 0 68 76v4q0 53 -76 68q-58 0 -72 -76zM644 2398q17 112 104 112h8q83 0 112 -80l4 -24v-20 q-23 -104 -104 -104h-20q-89 0 -104 116zM684 2394q0 -60 80 -72q51 0 68 76v4q0 53 -76 68q-58 0 -72 -76z" />
<glyph unicode="&#xe5;" d="M100 532v20q0 367 348 496q107 36 228 36h424v192q0 333 -272 440q-106 36 -224 36h-460q-40 5 -40 40q5 40 40 40h508q201 0 380 -148q148 -152 148 -368v-1272q0 -36 -48 -44h-452q-386 0 -536 304q-44 110 -44 228zM180 544q0 -301 256 -416q115 -44 204 -44h460v916 h-452q-266 0 -408 -212q-60 -108 -60 -244zM476 2398q17 112 104 112h8q83 0 112 -80l4 -24v-20q-23 -104 -104 -104h-20q-89 0 -104 116zM516 2394q0 -60 80 -72q51 0 68 76v4q0 53 -76 68q-58 0 -72 -76z" />
<glyph unicode="&#xe6;" horiz-adv-x="2292" d="M100 532v20q0 367 348 496q107 36 228 36h424v192q0 333 -272 440q-106 36 -224 36h-460q-40 5 -40 40q5 40 40 40h508q209 0 388 -156q81 -85 108 -180h4q132 336 480 336h32q416 0 520 -456q8 -69 8 -112v-216q0 -43 -56 -48h-936l-8 4v-460q0 -233 184 -384 q109 -76 260 -76h28q309 0 416 296q32 116 32 172q16 24 36 24h4q40 -9 40 -40q0 -161 -116 -344q-154 -192 -428 -192q-314 0 -468 260v-216q0 -36 -48 -44h-452q-386 0 -536 304q-44 110 -44 228zM180 544q0 -301 256 -416q115 -44 204 -44h460v916h-452q-266 0 -408 -212 q-60 -108 -60 -244zM1192 1080l8 4h908v216q0 169 -128 324q-122 128 -332 128q-319 0 -424 -296q-32 -89 -32 -168v-208z" />
<glyph unicode="&#xe7;" horiz-adv-x="905" />
<glyph unicode="&#xe8;" horiz-adv-x="1284" d="M100 584v664q0 395 320 548q113 36 204 36h32q416 0 520 -456q8 -69 8 -112v-216q0 -43 -56 -48h-936l-8 4v-460q0 -233 184 -384q109 -76 260 -76h28q309 0 416 296q32 116 32 172q16 24 36 24h4q40 -9 40 -40q0 -161 -116 -344q-154 -192 -428 -192q-403 0 -520 404 q-20 90 -20 180zM184 1080l8 4h908v216q0 169 -128 324q-122 128 -332 128q-319 0 -424 -296q-32 -89 -32 -168v-208zM412 2483q3 40 40 40q33 0 172 -152q148 -137 148 -164v-12q0 -32 -32 -32h-12q-28 0 -204 188q-112 99 -112 132z" />
<glyph unicode="&#xe9;" horiz-adv-x="1284" d="M100 584v664q0 395 320 548q113 36 204 36h32q416 0 520 -456q8 -69 8 -112v-216q0 -43 -56 -48h-936l-8 4v-460q0 -233 184 -384q109 -76 260 -76h28q309 0 416 296q32 116 32 172q16 24 36 24h4q40 -9 40 -40q0 -161 -116 -344q-154 -192 -428 -192q-403 0 -520 404 q-20 90 -20 180zM184 1080l8 4h908v216q0 169 -128 324q-122 128 -332 128q-319 0 -424 -296q-32 -89 -32 -168v-208zM412 2195v12q0 27 148 164q139 152 172 152q37 0 40 -40q0 -33 -112 -132q-176 -188 -204 -188h-12q-32 0 -32 32z" />
<glyph unicode="&#xea;" horiz-adv-x="1284" d="M100 584v664q0 395 320 548q113 36 204 36h32q416 0 520 -456q8 -69 8 -112v-216q0 -43 -56 -48h-936l-8 4v-460q0 -233 184 -384q109 -76 260 -76h28q309 0 416 296q32 116 32 172q16 24 36 24h4q40 -9 40 -40q0 -161 -116 -344q-154 -192 -428 -192q-403 0 -520 404 q-20 90 -20 180zM184 1080l8 4h908v216q0 169 -128 324q-122 128 -332 128q-319 0 -424 -296q-32 -89 -32 -168v-208zM266 2198q0 28 136 152q161 172 184 172h8q39 0 136 -112q188 -176 188 -204v-12q0 -32 -32 -32h-12q-28 0 -204 188l-80 76q-259 -268 -276 -268h-8 q-40 5 -40 40z" />
<glyph unicode="&#xeb;" horiz-adv-x="1284" d="M100 584v664q0 395 320 548q113 36 204 36h32q416 0 520 -456q8 -69 8 -112v-216q0 -43 -56 -48h-936l-8 4v-460q0 -233 184 -384q109 -76 260 -76h28q309 0 416 296q32 116 32 172q16 24 36 24h4q40 -9 40 -40q0 -161 -116 -344q-154 -192 -428 -192q-403 0 -520 404 q-20 90 -20 180zM184 1080l8 4h908v216q0 169 -128 324q-122 128 -332 128q-319 0 -424 -296q-32 -89 -32 -168v-208zM310 2402q17 112 104 112h8q83 0 112 -80l4 -24v-20q-23 -104 -104 -104h-20q-89 0 -104 116zM350 2398q0 -60 80 -72q51 0 68 76v4q0 53 -76 68 q-58 0 -72 -76zM646 2398q17 112 104 112h8q83 0 112 -80l4 -24v-20q-23 -104 -104 -104h-20q-89 0 -104 116zM686 2394q0 -60 80 -72q51 0 68 76v4q0 53 -76 68q-58 0 -72 -76z" />
<glyph unicode="&#xec;" horiz-adv-x="560" d="M100 1981q3 40 40 40q33 0 172 -152q148 -137 148 -164v-12q0 -32 -32 -32h-12q-28 0 -204 188q-112 99 -112 132zM376 44v1236q8 44 40 44h4q35 0 40 -52v-1216q0 -56 -44 -56q-32 0 -40 44z" />
<glyph unicode="&#xed;" horiz-adv-x="568" d="M100 44v1236q8 44 40 44h4q35 0 40 -52v-1216q0 -56 -44 -56q-32 0 -40 44zM108 1693v12q0 27 148 164q139 152 172 152q37 0 40 -40q0 -33 -112 -132q-176 -188 -204 -188h-12q-32 0 -32 32z" />
<glyph unicode="&#xee;" horiz-adv-x="852" d="M100 1703q0 28 136 152q161 172 184 172h8q39 0 136 -112q188 -176 188 -204v-12q0 -32 -32 -32h-12q-28 0 -204 188l-80 76q-259 -268 -276 -268h-8q-40 5 -40 40zM392 44v1236q8 44 40 44h4q35 0 40 -52v-1216q0 -56 -44 -56q-32 0 -40 44z" />
<glyph unicode="&#xef;" horiz-adv-x="764" d="M100 1908q17 112 104 112h8q83 0 112 -80l4 -24v-20q-23 -104 -104 -104h-20q-89 0 -104 116zM140 1904q0 -60 80 -72q51 0 68 76v4q0 53 -76 68q-58 0 -72 -76zM323 44v1236q8 44 40 44h4q35 0 40 -52v-1216q0 -56 -44 -56q-32 0 -40 44zM436 1904q17 112 104 112h8 q83 0 112 -80l4 -24v-20q-23 -104 -104 -104h-20q-89 0 -104 116zM476 1900q0 -60 80 -72q51 0 68 76v4q0 53 -76 68q-58 0 -72 -76z" />
<glyph unicode="&#xf0;" horiz-adv-x="1139" />
<glyph unicode="&#xf1;" d="M100 40v1244q0 274 208 448q138 96 312 96h32q410 0 516 -424q12 -70 12 -108v-1260q0 -29 -40 -36q-40 7 -40 40v1216q0 332 -272 460q-98 32 -188 32q-352 0 -444 -352q-16 -64 -16 -140v-1216q-5 -36 -36 -36h-8q-36 5 -36 36zM258 2358v20q0 91 96 128q42 12 84 12 h16q133 0 172 -92q8 -28 8 -48v-48q22 -100 100 -100q81 0 112 128q15 12 28 12h8q36 0 36 -44q0 -82 -92 -156q-48 -20 -88 -20h-8q-153 0 -180 184q4 35 4 44q-14 60 -112 60q-104 0 -104 -68q4 -28 4 -32q-4 -40 -36 -40h-8q-40 0 -40 60z" />
<glyph unicode="&#xf2;" horiz-adv-x="1288" d="M100 528v768q0 276 224 452q134 84 320 84q371 0 496 -344q48 -178 48 -324q0 -768 -32 -768q-111 -396 -520 -396q-377 0 -508 364q-28 112 -28 164zM180 564q0 -285 224 -428q98 -52 204 -52h64q261 0 380 256q52 64 52 484v420q-24 174 -52 248q-113 256 -388 256h-60 q-269 0 -384 -264q-40 -100 -40 -216v-704zM414 2483q3 40 40 40q33 0 172 -152q148 -137 148 -164v-12q0 -32 -32 -32h-12q-28 0 -204 188q-112 99 -112 132z" />
<glyph unicode="&#xf3;" horiz-adv-x="1288" d="M100 528v768q0 276 224 452q134 84 320 84q371 0 496 -344q48 -178 48 -324q0 -768 -32 -768q-111 -396 -520 -396q-377 0 -508 364q-28 112 -28 164zM180 564q0 -285 224 -428q98 -52 204 -52h64q261 0 380 256q52 64 52 484v420q-24 174 -52 248q-113 256 -388 256h-60 q-269 0 -384 -264q-40 -100 -40 -216v-704zM414 2195v12q0 27 148 164q139 152 172 152q37 0 40 -40q0 -33 -112 -132q-176 -188 -204 -188h-12q-32 0 -32 32z" />
<glyph unicode="&#xf4;" horiz-adv-x="1288" d="M100 528v768q0 276 224 452q134 84 320 84q371 0 496 -344q48 -178 48 -324q0 -768 -32 -768q-111 -396 -520 -396q-377 0 -508 364q-28 112 -28 164zM180 564q0 -285 224 -428q98 -52 204 -52h64q261 0 380 256q52 64 52 484v420q-24 174 -52 248q-113 256 -388 256h-60 q-269 0 -384 -264q-40 -100 -40 -216v-704zM268 2198q0 28 136 152q161 172 184 172h8q39 0 136 -112q188 -176 188 -204v-12q0 -32 -32 -32h-12q-28 0 -204 188l-80 76q-259 -268 -276 -268h-8q-40 5 -40 40z" />
<glyph unicode="&#xf5;" horiz-adv-x="1288" d="M100 528v768q0 276 224 452q134 84 320 84q371 0 496 -344q48 -178 48 -324q0 -768 -32 -768q-111 -396 -520 -396q-377 0 -508 364q-28 112 -28 164zM180 564q0 -285 224 -428q98 -52 204 -52h64q261 0 380 256q52 64 52 484v420q-24 174 -52 248q-113 256 -388 256h-60 q-269 0 -384 -264q-40 -100 -40 -216v-704zM264 2358v20q0 91 96 128q42 12 84 12h16q133 0 172 -92q8 -28 8 -48v-48q22 -100 100 -100q81 0 112 128q15 12 28 12h8q36 0 36 -44q0 -82 -92 -156q-48 -20 -88 -20h-8q-153 0 -180 184q4 35 4 44q-14 60 -112 60 q-104 0 -104 -68q4 -28 4 -32q-4 -40 -36 -40h-8q-40 0 -40 60z" />
<glyph unicode="&#xf6;" horiz-adv-x="1288" d="M100 528v768q0 276 224 452q134 84 320 84q371 0 496 -344q48 -178 48 -324q0 -768 -32 -768q-111 -396 -520 -396q-377 0 -508 364q-28 112 -28 164zM180 564q0 -285 224 -428q98 -52 204 -52h64q261 0 380 256q52 64 52 484v420q-24 174 -52 248q-113 256 -388 256h-60 q-269 0 -384 -264q-40 -100 -40 -216v-704zM312 2402q17 112 104 112h8q83 0 112 -80l4 -24v-20q-23 -104 -104 -104h-20q-89 0 -104 116zM352 2398q0 -60 80 -72q51 0 68 76v4q0 53 -76 68q-58 0 -72 -76zM648 2398q17 112 104 112h8q83 0 112 -80l4 -24v-20 q-23 -104 -104 -104h-20q-89 0 -104 116zM688 2394q0 -60 80 -72q51 0 68 76v4q0 53 -76 68q-58 0 -72 -76z" />
<glyph unicode="&#xf7;" horiz-adv-x="1014" />
<glyph unicode="&#xf8;" horiz-adv-x="1010" />
<glyph unicode="&#xf9;" d="M100 532v1260q0 29 40 36q40 -7 40 -40v-1216q0 -332 272 -460q98 -32 188 -32q352 0 444 352q16 65 16 140v1216q5 36 36 36h8q36 -5 36 -36v-1244q0 -274 -208 -448q-138 -96 -312 -96h-32q-410 0 -516 424q-12 70 -12 108zM410 2483q3 40 40 40q33 0 172 -152 q148 -137 148 -164v-12q0 -32 -32 -32h-12q-28 0 -204 188q-112 99 -112 132z" />
<glyph unicode="&#xfa;" d="M100 532v1260q0 29 40 36q40 -7 40 -40v-1216q0 -332 272 -460q98 -32 188 -32q352 0 444 352q16 65 16 140v1216q5 36 36 36h8q36 -5 36 -36v-1244q0 -274 -208 -448q-138 -96 -312 -96h-32q-410 0 -516 424q-12 70 -12 108zM410 2195v12q0 27 148 164q139 152 172 152 q37 0 40 -40q0 -33 -112 -132q-176 -188 -204 -188h-12q-32 0 -32 32z" />
<glyph unicode="&#xfb;" d="M100 532v1260q0 29 40 36q40 -7 40 -40v-1216q0 -332 272 -460q98 -32 188 -32q352 0 444 352q16 65 16 140v1216q5 36 36 36h8q36 -5 36 -36v-1244q0 -274 -208 -448q-138 -96 -312 -96h-32q-410 0 -516 424q-12 70 -12 108zM264 2198q0 28 136 152q161 172 184 172h8 q39 0 136 -112q188 -176 188 -204v-12q0 -32 -32 -32h-12q-28 0 -204 188l-80 76q-259 -268 -276 -268h-8q-40 5 -40 40z" />
<glyph unicode="&#xfc;" d="M100 532v1260q0 29 40 36q40 -7 40 -40v-1216q0 -332 272 -460q98 -32 188 -32q352 0 444 352q16 65 16 140v1216q5 36 36 36h8q36 -5 36 -36v-1244q0 -274 -208 -448q-138 -96 -312 -96h-32q-410 0 -516 424q-12 70 -12 108zM308 2402q17 112 104 112h8q83 0 112 -80 l4 -24v-20q-23 -104 -104 -104h-20q-89 0 -104 116zM348 2398q0 -60 80 -72q51 0 68 76v4q0 53 -76 68q-58 0 -72 -76zM644 2398q17 112 104 112h8q83 0 112 -80l4 -24v-20q-23 -104 -104 -104h-20q-89 0 -104 116zM684 2394q0 -60 80 -72q51 0 68 76v4q0 53 -76 68 q-58 0 -72 -76z" />
<glyph unicode="&#xfd;" horiz-adv-x="868" />
<glyph unicode="&#xfe;" horiz-adv-x="1010" />
<glyph unicode="&#xff;" horiz-adv-x="868" />
<glyph unicode="&#x2c6;" horiz-adv-x="1024" />
<glyph unicode="&#x2dc;" horiz-adv-x="860" d="M100 2358v20q0 91 96 128q42 12 84 12h16q133 0 172 -92q8 -28 8 -48v-48q22 -100 100 -100q81 0 112 128q15 12 28 12h8q36 0 36 -44q0 -82 -92 -156q-48 -20 -88 -20h-8q-153 0 -180 184q4 35 4 44q-14 60 -112 60q-104 0 -104 -68q4 -28 4 -32q-4 -40 -36 -40h-8 q-40 0 -40 60z" />
<glyph unicode="&#x2000;" horiz-adv-x="1261" />
<glyph unicode="&#x2001;" horiz-adv-x="2523" />
<glyph unicode="&#x2002;" horiz-adv-x="1261" />
<glyph unicode="&#x2003;" horiz-adv-x="2523" />
<glyph unicode="&#x2004;" horiz-adv-x="841" />
<glyph unicode="&#x2005;" horiz-adv-x="630" />
<glyph unicode="&#x2006;" horiz-adv-x="420" />
<glyph unicode="&#x2007;" horiz-adv-x="420" />
<glyph unicode="&#x2008;" horiz-adv-x="315" />
<glyph unicode="&#x2009;" horiz-adv-x="504" />
<glyph unicode="&#x200a;" horiz-adv-x="140" />
<glyph unicode="&#x2010;" horiz-adv-x="670" />
<glyph unicode="&#x2011;" horiz-adv-x="670" />
<glyph unicode="&#x2012;" horiz-adv-x="670" />
<glyph unicode="&#x2013;" horiz-adv-x="1108" />
<glyph unicode="&#x2014;" horiz-adv-x="2048" />
<glyph unicode="&#x2018;" horiz-adv-x="557" />
<glyph unicode="&#x2019;" horiz-adv-x="557" />
<glyph unicode="&#x201a;" horiz-adv-x="557" />
<glyph unicode="&#x201c;" horiz-adv-x="910" />
<glyph unicode="&#x201d;" horiz-adv-x="910" />
<glyph unicode="&#x201e;" horiz-adv-x="910" />
<glyph unicode="&#x2022;" horiz-adv-x="1024" />
<glyph unicode="&#x2026;" horiz-adv-x="2048" />
<glyph unicode="&#x202f;" horiz-adv-x="504" />
<glyph unicode="&#x2039;" horiz-adv-x="631" />
<glyph unicode="&#x203a;" horiz-adv-x="631" />
<glyph unicode="&#x205f;" horiz-adv-x="630" />
<glyph unicode="&#x20ac;" horiz-adv-x="1014" />
<glyph unicode="&#x2122;" horiz-adv-x="1497" />
<glyph unicode="&#x25fc;" horiz-adv-x="1830" d="M0 0v1830h1830v-1830h-1830z" />
</font>
</defs>
</svg>
